<?xml version="1.0" encoding="utf-8"?>
<!-- Generator: Adobe Illustrator 26.2.1, SVG Export Plug-In . SVG Version: 6.00 Build 0)  -->
<svg version="1.1" id="a" xmlns="http://www.w3.org/2000/svg" xmlns:xlink="http://www.w3.org/1999/xlink" x="0px" y="0px"
	 viewBox="0 0 205.5 181.2" style="enable-background:new 0 0 205.5 181.2;" xml:space="preserve">
<style type="text/css">
	.st0{fill:none;stroke:#231F20;stroke-width:3;stroke-miterlimit:10;}
	.st1{fill:#231F20;}
	.st2{fill:#0C0608;}
	.st3{font-family:'Lato-Light';}
	.st4{font-size:124.25px;}
</style>
<g>
	<line class="st0" x1="92.6" y1="153.8" x2="92.6" y2="24.4"/>
	<g>
		<polygon class="st1" points="103.3,161.2 102.8,160.7 94.1,152 94.1,178 103.3,187.3 		"/>
		<path class="st1" d="M82.3,187.3l8.8-9.3v-26c-2.5,3.4-5.5,6.5-8.8,9.2V187.3z"/>
	</g>
	<path class="st1" d="M92.6,29.8l-10.8,6.6L81.6,36l7-17.6c1.3-6.1,2.7-12.3,4-18.4c1.3,6.1,2.7,12.3,4,18.4l7,17.6l-0.2,0.4
		L92.6,29.8z"/>
</g>
<text transform="matrix(1.57 0 0 1 -20.4814 135.15)" class="st2 st3 st4">ET</text>
</svg>
